<svg width="81" height="123" viewBox="0 0 81 123" fill="none" xmlns="http://www.w3.org/2000/svg">
<path d="M0 0H80.1588L73.2634 122.858H6.89538L0 0Z" fill="#EFEFEF"/>
<path d="M20.8284 10.3079C32.1843 8.87753 41.1448 6.01685 54.3637 6.01685C67.5826 6.01685 76.2769 11.2614 76.2769 11.2614L70.7259 121.112H9.61187L3.49353 7.54254C3.49353 7.54254 9.47259 11.7382 20.8284 10.3079Z" fill="url(#paint0_linear_44_6288)"/>
<path d="M37.071 102.673C23.64 104.769 16.9828 111.31 15.333 114.318C20.5734 111.504 29.7926 120.044 42.0203 117.133C54.2479 114.221 68.3193 102.673 64.0494 102.673C59.7794 102.673 53.8597 100.053 37.071 102.673Z" fill="url(#paint1_linear_44_6288)"/>
<path d="M0 0H80.1588L73.2634 122.858H6.89538L0 0Z" fill="url(#paint2_linear_44_6288)"/>
<defs>
<linearGradient id="paint0_linear_44_6288" x1="39.8852" y1="6.01685" x2="39.8852" y2="121.112" gradientUnits="userSpaceOnUse">
<stop offset="0.132582" stop-color="#FFE6B3"/>
<stop offset="1" stop-color="#E67A45"/>
</linearGradient>
<linearGradient id="paint1_linear_44_6288" x1="40.0816" y1="101.509" x2="43.8641" y2="116.453" gradientUnits="userSpaceOnUse">
<stop stop-color="#E67A45"/>
<stop offset="0.578125" stop-color="#BF6239"/>
<stop offset="1" stop-color="#994E2E"/>
</linearGradient>
<linearGradient id="paint2_linear_44_6288" x1="3.29951" y1="57.8385" x2="76.374" y2="58.1297" gradientUnits="userSpaceOnUse">
<stop offset="0.135417" stop-color="white" stop-opacity="0.3"/>
<stop offset="0.682292" stop-color="#FFC6A6" stop-opacity="0"/>
<stop offset="0.921875" stop-color="white" stop-opacity="0.3"/>
</linearGradient>
</defs>
</svg>
