<svg width="413" height="633" viewBox="0 0 413 633" fill="none" xmlns="http://www.w3.org/2000/svg">
<path d="M0 0H413L377.473 633H35.5269L0 0Z" fill="#EFEFEF"/>
<path d="M107.314 437.196C165.823 434.797 211.989 430 280.097 430C348.204 430 375 438.795 375 438.795L364.399 623H49.5233L36 432.558C36 432.558 48.8057 439.594 107.314 437.196Z" fill="url(#paint0_linear_44_5699)"/>
<path d="M190.99 567.084C121.796 572.635 87.4992 589.955 79 597.921C105.998 590.469 153.493 613.083 216.487 605.374C279.482 597.664 351.975 567.084 329.977 567.084C307.979 567.084 277.482 560.145 190.99 567.084Z" fill="url(#paint1_linear_44_5699)"/>
<path d="M0 0H413L377.473 633H35.5269L0 0Z" fill="url(#paint2_linear_44_5699)"/>
<defs>
<linearGradient id="paint0_linear_44_5699" x1="205.5" y1="430" x2="205.5" y2="623" gradientUnits="userSpaceOnUse">
<stop offset="0.132582" stop-color="#FFE6B3"/>
<stop offset="1" stop-color="#E67A45"/>
</linearGradient>
<linearGradient id="paint1_linear_44_5699" x1="206.5" y1="564" x2="211.887" y2="605.409" gradientUnits="userSpaceOnUse">
<stop stop-color="#E67A45"/>
<stop offset="0.578125" stop-color="#BF6239"/>
<stop offset="1" stop-color="#994E2E"/>
</linearGradient>
<linearGradient id="paint2_linear_44_5699" x1="17" y1="298" x2="393.5" y2="299.5" gradientUnits="userSpaceOnUse">
<stop offset="0.135417" stop-color="white" stop-opacity="0.3"/>
<stop offset="0.682292" stop-color="#FFC6A6" stop-opacity="0"/>
<stop offset="0.921875" stop-color="white" stop-opacity="0.3"/>
</linearGradient>
</defs>
</svg>
