<svg width="81" height="123" viewBox="0 0 81 123" fill="none" xmlns="http://www.w3.org/2000/svg">
<path d="M0 0H80.1588L73.2634 122.858H6.89538L0 0Z" fill="#EFEFEF"/>
<path d="M20.8284 10.3079C32.1843 8.87753 41.1448 6.01685 54.3637 6.01685C67.5826 6.01685 76.2769 11.2614 76.2769 11.2614L70.7259 121.112H9.61187L3.49353 7.54254C3.49353 7.54254 9.47259 11.7382 20.8284 10.3079Z" fill="url(#paint0_linear_44_6293)"/>
<path d="M0 0H80.1588L73.2634 122.858H6.89538L0 0Z" fill="url(#paint1_linear_44_6293)"/>
<circle cx="19.7001" cy="92.4833" r="1.64976" fill="white" fill-opacity="0.8"/>
<circle cx="38.3328" cy="90.9305" r="1.64976" fill="white" fill-opacity="0.8"/>
<circle cx="27.852" cy="96.9473" r="2.42611" fill="white" fill-opacity="0.7"/>
<circle cx="46.0962" cy="108.01" r="2.42611" fill="white" fill-opacity="0.5"/>
<circle cx="50.9487" cy="88.9898" r="2.42611" fill="white" fill-opacity="0.6"/>
<circle cx="23.2911" cy="112.377" r="1.94089" fill="white" fill-opacity="0.4"/>
<circle cx="32.9952" cy="106.167" r="1.94089" fill="white" fill-opacity="0.2"/>
<circle cx="60.9441" cy="72.0068" r="1.94089" fill="white" fill-opacity="0.2"/>
<circle cx="61.9145" cy="108.981" r="2.81429" fill="white" fill-opacity="0.2"/>
<circle cx="25.2317" cy="84.6228" r="1.35862" fill="white" fill-opacity="0.2"/>
<circle cx="36.2948" cy="59.5852" r="1.35862" fill="white" fill-opacity="0.2"/>
<circle cx="39.0121" cy="114.707" r="2.32907" fill="white" fill-opacity="0.2"/>
<circle cx="55.6068" cy="116.356" r="1.64976" fill="white" fill-opacity="0.4"/>
<circle cx="46.7756" cy="96.4621" r="1.7468" fill="white" fill-opacity="0.7"/>
<circle cx="31.0544" cy="94.5212" r="3.10542" fill="white" fill-opacity="0.5"/>
<circle cx="58.0328" cy="100.15" r="3.10542" fill="white" fill-opacity="0.8"/>
<defs>
<linearGradient id="paint0_linear_44_6293" x1="39.8852" y1="6.01685" x2="39.8852" y2="121.112" gradientUnits="userSpaceOnUse">
<stop stop-color="#FFE3C2"/>
<stop offset="0.942708" stop-color="#9D6B4E"/>
</linearGradient>
<linearGradient id="paint1_linear_44_6293" x1="3.29951" y1="57.8385" x2="76.374" y2="58.1297" gradientUnits="userSpaceOnUse">
<stop offset="0.135417" stop-color="white" stop-opacity="0.3"/>
<stop offset="0.682292" stop-color="#FFC6A6" stop-opacity="0"/>
<stop offset="0.921875" stop-color="white" stop-opacity="0.3"/>
</linearGradient>
</defs>
</svg>
