<svg width="413" height="633" viewBox="0 0 413 633" fill="none" xmlns="http://www.w3.org/2000/svg">
<path d="M0 0H413L377.473 633H35.5269L0 0Z" fill="#EFEFEF"/>
<path d="M107.314 437.196C165.823 434.797 211.989 430 280.097 430C348.204 430 375 438.795 375 438.795L364.399 623H49.5233L36 432.558C36 432.558 48.8057 439.594 107.314 437.196Z" fill="url(#paint0_linear_44_5793)"/>
<circle cx="261.5" cy="584.5" r="14.5" fill="white" fill-opacity="0.2"/>
<circle cx="210" cy="558" r="7" fill="white" fill-opacity="0.2"/>
<circle cx="300" cy="523" r="7" fill="white" fill-opacity="0.2"/>
<path d="M0 0H413L377.473 633H35.5269L0 0Z" fill="url(#paint1_linear_44_5793)"/>
<defs>
<linearGradient id="paint0_linear_44_5793" x1="205.5" y1="430" x2="205.5" y2="623" gradientUnits="userSpaceOnUse">
<stop stop-color="#FFE3C2"/>
<stop offset="0.942708" stop-color="#9D6B4E"/>
</linearGradient>
<linearGradient id="paint1_linear_44_5793" x1="17" y1="298" x2="393.5" y2="299.5" gradientUnits="userSpaceOnUse">
<stop offset="0.135417" stop-color="white" stop-opacity="0.3"/>
<stop offset="0.682292" stop-color="#FFC6A6" stop-opacity="0"/>
<stop offset="0.921875" stop-color="white" stop-opacity="0.3"/>
</linearGradient>
</defs>
</svg>
