<svg width="413" height="633" viewBox="0 0 413 633" fill="none" xmlns="http://www.w3.org/2000/svg">
<path d="M0 0H413L377.473 633H35.5269L0 0Z" fill="#EFEFEF"/>
<path d="M107.314 197.516C165.823 192.011 211.989 181 280.097 181C348.204 181 386 201.186 386 201.186L364.399 624H49.5233L25 186.872C25 186.872 48.8057 203.022 107.314 197.516Z" fill="url(#paint0_linear_44_5300)"/>
<circle cx="101.5" cy="536.5" r="8.5" fill="white" fill-opacity="0.6"/>
<circle cx="232.5" cy="563.5" r="12.5" fill="white" fill-opacity="0.7"/>
<circle cx="149.5" cy="575.5" r="12.5" fill="white" fill-opacity="0.5"/>
<circle cx="255" cy="601" r="10" fill="white" fill-opacity="0.2"/>
<circle cx="273" cy="510" r="10" fill="white" fill-opacity="0.2"/>
<circle cx="317.5" cy="575.5" r="14.5" fill="white" fill-opacity="0.2"/>
<circle cx="130" cy="496" r="7" fill="white" fill-opacity="0.2"/>
<circle cx="231" cy="469" r="7" fill="white" fill-opacity="0.2"/>
<circle cx="217" cy="556" r="16" fill="white" fill-opacity="0.5"/>
<path d="M0 0H413L377.473 633H35.5269L0 0Z" fill="url(#paint1_linear_44_5300)"/>
<defs>
<linearGradient id="paint0_linear_44_5300" x1="205.5" y1="181" x2="205.5" y2="624" gradientUnits="userSpaceOnUse">
<stop stop-color="#FFE3C2"/>
<stop offset="0.942708" stop-color="#9D6B4E"/>
</linearGradient>
<linearGradient id="paint1_linear_44_5300" x1="17" y1="298" x2="393.5" y2="299.5" gradientUnits="userSpaceOnUse">
<stop offset="0.135417" stop-color="white" stop-opacity="0.3"/>
<stop offset="0.682292" stop-color="#FFC6A6" stop-opacity="0"/>
<stop offset="0.921875" stop-color="white" stop-opacity="0.3"/>
</linearGradient>
</defs>
</svg>
