<svg width="413" height="639" viewBox="0 0 413 639" fill="none" xmlns="http://www.w3.org/2000/svg">
<path d="M0 0H413L377.473 633H35.5269L0 0Z" fill="#EFEFEF"/>
<path d="M107.314 205.516C165.823 200.011 211.989 189 280.097 189C348.204 189 386 209.186 386 209.186L364.399 632H49.5233L25 194.872C25 194.872 48.8057 211.022 107.314 205.516Z" fill="url(#paint0_linear_44_5208)"/>
<path d="M198.613 544.509C129.638 534.581 89.838 550.605 78.5596 559.858C107.508 556.132 144.674 600.936 208.491 606.156C272.309 611.377 354.112 586.175 332.864 580.482C311.615 574.788 284.83 556.92 198.613 544.509Z" fill="url(#paint1_linear_44_5208)"/>
<path d="M0 0H413L377.473 633H35.5269L0 0Z" fill="url(#paint2_linear_44_5208)"/>
<defs>
<linearGradient id="paint0_linear_44_5208" x1="205.5" y1="189" x2="205.5" y2="632" gradientUnits="userSpaceOnUse">
<stop offset="0.132582" stop-color="#FFFEE6"/>
<stop offset="1" stop-color="#CCA352"/>
</linearGradient>
<linearGradient id="paint1_linear_44_5208" x1="214.782" y1="544.09" x2="210.445" y2="605.47" gradientUnits="userSpaceOnUse">
<stop stop-color="#CCA352"/>
<stop offset="0.429596" stop-color="#B38834"/>
<stop offset="1" stop-color="#99752E"/>
</linearGradient>
<linearGradient id="paint2_linear_44_5208" x1="17" y1="298" x2="393.5" y2="299.5" gradientUnits="userSpaceOnUse">
<stop offset="0.135417" stop-color="white" stop-opacity="0.3"/>
<stop offset="0.682292" stop-color="#FFC6A6" stop-opacity="0"/>
<stop offset="0.921875" stop-color="white" stop-opacity="0.3"/>
</linearGradient>
</defs>
</svg>
