<svg width="76" height="21" viewBox="0 0 76 21" fill="none" xmlns="http://www.w3.org/2000/svg">
<path d="M11 0.655999C11.848 0.655999 12.824 0.775999 13.928 1.016C15.048 1.256 15.864 1.512 16.376 1.784V6.44H15.464C13.992 3.928 12.04 2.672 9.608 2.672C8.552 2.672 7.584 2.984 6.704 3.608C5.84 4.216 5.16 5.072 4.664 6.176C4.168 7.264 3.92 8.488 3.92 9.848C3.92 11.416 4.16 12.848 4.64 14.144C5.136 15.44 5.88 16.48 6.872 17.264C7.88 18.048 9.12 18.44 10.592 18.44C11.952 18.44 13.904 17.416 16.448 15.368L17.168 16.52L12.752 19.952C12.16 20.16 11.584 20.296 11.024 20.36C10.48 20.44 9.888 20.48 9.248 20.48C7.568 20.48 6.08 20.072 4.784 19.256C3.488 18.44 2.48 17.32 1.76 15.896C1.04 14.456 0.68 12.824 0.68 11C0.68 9.128 1.224 7.4 2.312 5.816C3.4 4.216 4.752 2.96 6.368 2.048C7.984 1.12 9.528 0.655999 11 0.655999ZM27.5915 7.016C28.6475 7.016 29.5915 7.296 30.4235 7.856C31.2715 8.4 31.9275 9.144 32.3915 10.088C32.8715 11.032 33.1115 12.072 33.1115 13.208C33.1115 14.44 32.7355 15.6 31.9835 16.688C31.2315 17.76 30.2875 18.624 29.1515 19.28C28.0315 19.92 26.9435 20.24 25.8875 20.24C24.8315 20.24 23.8795 19.968 23.0315 19.424C22.1995 18.864 21.5435 18.112 21.0635 17.168C20.5995 16.224 20.3675 15.184 20.3675 14.048C20.3675 12.816 20.7435 11.664 21.4955 10.592C22.2475 9.504 23.1835 8.64 24.3035 8C25.4395 7.344 26.5355 7.016 27.5915 7.016ZM26.1995 9.032C24.3915 9.032 23.4875 10.32 23.4875 12.896C23.4875 14.416 23.8155 15.688 24.4715 16.712C25.1275 17.72 26.0635 18.224 27.2795 18.224C29.0875 18.224 29.9915 16.928 29.9915 14.336C29.9915 12.832 29.6635 11.576 29.0075 10.568C28.3515 9.544 27.4155 9.032 26.1995 9.032ZM42.9491 20.048C42.5811 20.176 42.1331 20.24 41.6051 20.24C40.2771 20.24 39.3011 19.896 38.6771 19.208C38.0691 18.504 37.7651 17.424 37.7651 15.968V8.96H35.1731V7.976L39.7331 2.672H40.6451V7.976H44.9651V8.96H40.6451V16.256C40.6451 17.552 41.2691 18.2 42.5171 18.2C42.8531 18.2 43.1731 18.128 43.4771 17.984C43.7971 17.84 44.1891 17.584 44.6531 17.216L45.3731 18.128L42.9491 20.048ZM55.004 20.048C54.364 20.176 53.596 20.24 52.7 20.24C51.644 20.24 50.692 19.968 49.844 19.424C49.012 18.864 48.356 18.112 47.876 17.168C47.412 16.224 47.18 15.184 47.18 14.048C47.18 12.816 47.556 11.664 48.308 10.592C49.06 9.504 49.996 8.64 51.116 8C52.252 7.344 53.348 7.016 54.404 7.016C55.924 7.016 57.1 7.616 57.932 8.816C58.78 10.016 59.204 11.6 59.204 13.568H50.324C50.42 14.928 50.788 16.04 51.428 16.904C52.084 17.768 52.972 18.2 54.092 18.2C55.132 18.2 56.612 17.392 58.532 15.776L59.252 16.688L55.004 20.048ZM53.012 9.032C51.284 9.032 50.38 10.216 50.3 12.584H55.916C55.772 11.72 55.62 11.064 55.46 10.616C55.316 10.152 55.052 9.776 54.668 9.488C54.3 9.184 53.748 9.032 53.012 9.032ZM74.7459 20H70.1859V17.912L67.4739 20.048C67.1539 20.176 66.7539 20.24 66.2739 20.24C64.8979 20.24 63.8979 19.896 63.2739 19.208C62.6659 18.52 62.3619 17.696 62.3619 16.736C62.3619 16.16 62.5699 15.592 62.9859 15.032C63.4019 14.472 63.9939 13.944 64.7619 13.448H70.1859V11.912C70.1859 10.872 69.9059 10.136 69.3459 9.704C68.8019 9.272 68.0499 9.056 67.0899 9.056C66.0979 9.056 64.8819 9.656 63.4419 10.856L62.7219 9.944L66.1779 7.208C66.8179 7.08 67.5859 7.016 68.4819 7.016C69.9379 7.016 71.0659 7.376 71.8659 8.096C72.6659 8.8 73.0659 9.832 73.0659 11.192V18.2L75.2259 19.04L74.7459 20ZM67.0419 18.2C68.0179 18.2 69.0659 17.752 70.1859 16.856V14.432H65.9379C65.7299 14.688 65.5779 14.944 65.4819 15.2C65.4019 15.456 65.3619 15.736 65.3619 16.04C65.3619 16.632 65.5139 17.144 65.8179 17.576C66.1219 17.992 66.5299 18.2 67.0419 18.2Z" fill="#58514A"/>
</svg>
